HIERARCHY
ROOT joint_Root
{
	OFFSET 0.0 0.0 0.0
	CHANNELS 6 Xposition Yposition Zposition Zrotation Xrotation Yrotation 
	JOINT Hips
	{
		OFFSET 4.5925 91.4895 -427.239
		CHANNELS 6 Xposition Yposition Zposition Zrotation Xrotation Yrotation 
		JOINT Spine
		{
			OFFSET 15.7357 0.0 0.0
			CHANNELS 6 Xposition Yposition Zposition Zrotation Xrotation Yrotation 
			JOINT Chest
			{
				OFFSET 8.98455 -0.406207 0.0
				CHANNELS 6 Xposition Yposition Zposition Zrotation Xrotation Yrotation 
				JOINT Neck
				{
					OFFSET 16.3773 0.0 0.0
					CHANNELS 6 Xposition Yposition Zposition Zrotation Xrotation Yrotation 
					JOINT Head
					{
						OFFSET 6.45672 0.0 0.0
						CHANNELS 6 Xposition Yposition Zposition Zrotation Xrotation Yrotation 
						End Site
						{
							OFFSET 0.0 0.0 0.0
						}
					}
				}
				JOINT Shoulder_L
				{
					OFFSET 12.9942 -0.242716 4.98039
					CHANNELS 6 Xposition Yposition Zposition Zrotation Xrotation Yrotation 
					JOINT UpperArm_L
					{
						OFFSET 5.34809 0.0 0.0
						CHANNELS 6 Xposition Yposition Zposition Zrotation Xrotation Yrotation 
						JOINT LowerArm_L
						{
							OFFSET 24.3286 1.87007e-05 0.0
							CHANNELS 6 Xposition Yposition Zposition Zrotation Xrotation Yrotation 
							JOINT Hand_L
							{
								OFFSET 22.2916 0.0 0.0
								CHANNELS 6 Xposition Yposition Zposition Zrotation Xrotation Yrotation 
								End Site
								{
									OFFSET 0.0 0.0 0.0
								}
							}
						}
					}
				}
				JOINT Shoulder_R
				{
					OFFSET 12.9945 -0.242716 -4.98039
					CHANNELS 6 Xposition Yposition Zposition Zrotation Xrotation Yrotation 
					JOINT UpperArm_R
					{
						OFFSET -5.34813 0.0 0.0
						CHANNELS 6 Xposition Yposition Zposition Zrotation Xrotation Yrotation 
						JOINT LowerArm_R
						{
							OFFSET -24.3289 0.000322201 0.0
							CHANNELS 6 Xposition Yposition Zposition Zrotation Xrotation Yrotation 
							JOINT Hand_R
							{
								OFFSET -22.2915 -0.000108084 0.0
								CHANNELS 6 Xposition Yposition Zposition Zrotation Xrotation Yrotation 
								End Site
								{
									OFFSET 0.0 0.0 0.0
								}
							}
						}
					}
				}
			}
		}
		JOINT UpperLeg_L
		{
			OFFSET -2.19248 -6.46944 0.0
			CHANNELS 6 Xposition Yposition Zposition Zrotation Xrotation Yrotation 
			JOINT LowerLeg_L
			{
				OFFSET 39.0811 0.0 -1.23785e-05
				CHANNELS 6 Xposition Yposition Zposition Zrotation Xrotation Yrotation 
				JOINT Foot_L
				{
					OFFSET 40.9854 0.0 -1.26872e-05
					CHANNELS 6 Xposition Yposition Zposition Zrotation Xrotation Yrotation 
					JOINT Toes_L
					{
						OFFSET 11.7543 0.0 0.0
						CHANNELS 6 Xposition Yposition Zposition Zrotation Xrotation Yrotation 
						End Site
						{
							OFFSET 0.0 0.0 0.0
						}
					}
				}
			}
		}
		JOINT UpperLeg_R
		{
			OFFSET -2.19251 6.46944 0.0
			CHANNELS 6 Xposition Yposition Zposition Zrotation Xrotation Yrotation 
			JOINT LowerLeg_R
			{
				OFFSET -39.0811 -0.00228153 -0.0401928
				CHANNELS 6 Xposition Yposition Zposition Zrotation Xrotation Yrotation 
				JOINT Foot_R
				{
					OFFSET -40.9854 0.0 0.0
					CHANNELS 6 Xposition Yposition Zposition Zrotation Xrotation Yrotation 
					JOINT Toes_R
					{
						OFFSET -11.7543 0.0 0.0
						CHANNELS 6 Xposition Yposition Zposition Zrotation Xrotation Yrotation 
						End Site
						{
							OFFSET 0.0 0.0 0.0
						}
					}
				}
			}
		}
	}
}
MOTION
Frames:	4
Frame Time:	0.0333333
0.000000 0.000000 0.000000 0.000000 0.000000 -0.000000 -2.079060 90.910100 -8.675290 88.309900 -1.959500 11.431300 15.735700 0.000005 -0.000001 88.477900 75.059800 -88.881600 8.984550 -0.406207 -0.000000 22.102500 -0.822452 -0.650309 16.377300 -0.000001 -0.000001 14.971900 -2.975810 2.241630 6.456720 -0.000001 -0.000000 -14.240100 -3.328460 1.418310 12.994200 -0.242716 4.980390 -88.679700 -4.258060 -72.755300 5.348090 -0.000007 -0.000001 -76.274100 -13.515000 -84.625500 24.328600 0.000019 0.000005 40.168500 -0.154745 -90.183300 22.291600 -0.000001 0.000005 17.202900 5.070820 5.774580 12.994500 -0.242716 -4.980390 90.542500 -2.368090 -77.093900 -5.348130 -0.000001 -0.000004 -69.439800 -15.678900 -80.898400 -24.328900 0.000322 -0.000009 19.515700 0.438866 -88.762800 -22.291500 -0.000108 -0.000004 27.187200 5.260940 1.141730 -2.192480 -6.469440 -0.000000 -173.370000 -13.408700 -6.262240 39.081100 -0.000007 -0.000012 -0.068018 0.108095 32.180300 40.985400 -0.000006 -0.000013 0.642854 7.520860 -64.242100 11.754300 -0.000000 0.000003 -0.000192 -0.001791 -16.645200 -2.192510 6.469440 -0.000001 177.405000 24.367200 175.753000 -39.081100 -0.002282 -0.040193 -0.095484 0.167459 30.536600 -40.985400 0.000008 0.000006 6.102220 16.581400 -65.341800 -11.754300 -0.000006 -0.000006 -0.002265 -0.031982 -17.873600
0.000000 0.000000 0.000000 0.000000 0.000000 -0.000000 -2.083890 90.910800 -8.744680 88.304300 -1.924310 11.405100 15.735700 0.000005 -0.000001 88.467000 75.073700 -88.873200 8.984550 -0.406207 -0.000000 22.074600 -0.827532 -0.654592 16.377300 -0.000001 -0.000001 14.920600 -2.975210 2.265790 6.456720 -0.000001 -0.000000 -14.123900 -3.290100 1.395810 12.994200 -0.242716 4.980390 -88.695400 -4.200990 -72.730900 5.348090 -0.000007 -0.000001 -76.265200 -13.447500 -84.738100 24.328600 0.000019 0.000005 40.272000 0.006265 -89.992600 22.291600 -0.000001 0.000005 17.264900 5.068320 5.830510 12.994500 -0.242716 -4.980390 90.546600 -2.384190 -77.084100 -5.348130 -0.000001 -0.000004 -69.469300 -15.703500 -80.907200 -24.328900 0.000322 -0.000009 19.551400 0.469681 -88.678600 -22.291500 -0.000108 -0.000004 27.203800 5.261810 1.118380 -2.192480 -6.469440 -0.000000 -173.382000 -13.429200 -6.339080 39.081100 -0.000007 -0.000012 -0.067130 0.106718 32.171700 40.985400 -0.000006 -0.000013 0.660358 7.561830 -64.188100 11.754300 -0.000000 0.000003 -0.000207 -0.001903 -16.649300 -2.192510 6.469440 -0.000001 177.430000 24.402600 175.684000 -39.081100 -0.002282 -0.040193 -0.096564 0.169371 30.524600 -40.985400 0.000008 0.000006 6.099670 16.576900 -65.291700 -11.754300 -0.000006 -0.000006 -0.002300 -0.032411 -17.891100
0.000000 0.000000 0.000000 0.000000 0.000000 -0.000000 -2.070830 90.911500 -8.797460 88.303000 -1.922200 11.404900 15.735700 0.000005 -0.000001 88.466400 75.074700 -88.881500 8.984550 -0.406207 -0.000000 22.072600 -0.828901 -0.672190 16.377300 -0.000001 -0.000001 14.946000 -2.964970 2.221130 6.456720 -0.000001 -0.000000 -14.084900 -3.250900 1.420950 12.994200 -0.242716 4.980390 -88.683700 -4.235900 -72.720200 5.348090 -0.000007 -0.000001 -76.359400 -13.415700 -84.781000 24.328600 0.000019 0.000005 40.302100 0.095631 -89.887300 22.291600 -0.000001 0.000005 17.224300 5.069320 5.808020 12.994500 -0.242716 -4.980390 90.544100 -2.377660 -77.106000 -5.348130 -0.000001 -0.000004 -69.508300 -15.743800 -80.930300 -24.328900 0.000322 -0.000009 19.508800 0.475840 -88.658100 -22.291500 -0.000108 -0.000004 27.188000 5.262240 1.106880 -2.192480 -6.469440 -0.000000 -173.399000 -13.403600 -6.378740 39.081100 -0.000007 -0.000012 -0.067199 0.106871 32.161400 40.985400 -0.000006 -0.000013 0.661985 7.544710 -64.142400 11.754300 -0.000000 0.000003 -0.000200 -0.001854 -16.647500 -2.192510 6.469440 -0.000001 177.436000 24.411600 175.648000 -39.081100 -0.002282 -0.040193 -0.096670 0.169617 30.514800 -40.985400 0.000008 0.000006 6.098010 16.601200 -65.247900 -11.754300 -0.000006 -0.000006 -0.002342 -0.032913 -17.911500
0.000000 0.000000 0.000000 0.000000 0.000000 -0.000000 -2.064120 90.914800 -8.858310 88.317600 -1.898820 11.433400 15.735700 0.000005 -0.000001 88.457500 75.063600 -88.884800 8.984550 -0.406207 -0.000000 22.094500 -0.835514 -0.695230 16.377300 -0.000001 -0.000001 14.975100 -2.972450 2.159160 6.456720 -0.000001 -0.000000 -14.041800 -3.249520 1.473250 12.994200 -0.242716 4.980390 -88.656900 -4.327410 -72.739300 5.348090 -0.000007 -0.000001 -76.481900 -13.418400 -84.797100 24.328600 0.000019 0.000005 40.114100 0.115915 -89.862400 22.291600 -0.000001 0.000005 17.129100 5.074660 5.688540 12.994500 -0.242716 -4.980390 90.540500 -2.359490 -77.093800 -5.348130 -0.000001 -0.000004 -69.519600 -15.780700 -80.992200 -24.328900 0.000322 -0.000009 19.533600 0.493385 -88.610500 -22.291500 -0.000108 -0.000004 27.225900 5.262880 1.089710 -2.192480 -6.469440 -0.000000 -173.425000 -13.422300 -6.374230 39.081100 -0.000007 -0.000012 -0.064940 0.103405 32.130000 40.985400 -0.000006 -0.000013 0.679837 7.560370 -64.091200 11.754300 -0.000000 0.000003 -0.000197 -0.001825 -16.646400 -2.192510 6.469440 -0.000001 177.426000 24.449500 175.641000 -39.081100 -0.002282 -0.040193 -0.092156 0.162074 30.496900 -40.985400 0.000008 0.000006 6.104320 16.597400 -65.198200 -11.754300 -0.000006 -0.000006 -0.002368 -0.033229 -17.924300
